<?xml version="1.0" encoding="utf-8"?>
<!-- Generator: Adobe Illustrator 16.0.4, SVG Export Plug-In . SVG Version: 6.00 Build 0)  -->
<!DOCTYPE svg PUBLIC "-//W3C//DTD SVG 1.1//EN" "http://www.w3.org/Graphics/SVG/1.1/DTD/svg11.dtd">
<svg version="1.1" id="レイヤー_1" xmlns="http://www.w3.org/2000/svg" xmlns:xlink="http://www.w3.org/1999/xlink" x="0px"
	 y="0px" width="32px" height="32px" viewBox="0 0 32 32" enable-background="new 0 0 32 32" xml:space="preserve">
<path fill="#FFFFFF" d="M8.43,7.786c0.212,0,0.212,0,0.33,0.022c-0.354,0.802-0.637,1.25-1.355,2.135
	C7.346,9.33,7.323,8.869,7.311,7.975C7.653,7.844,8.042,7.786,8.43,7.786z M16,2v12c0,1.1-0.9,2-2,2H2c-1.1,0-2-0.9-2-2V2
	c0-1.1,0.9-2,2-2h12C15.1,0,16,0.9,16,2z M12.989,9.658c0-0.918-0.342-1.639-1.047-2.216c-0.389-0.318-0.732-0.481-1.215-0.624
	c0.047-0.093,0.047-0.093,0.129-0.33c0.119-0.295,0.119-0.295,0.154-0.376L9.421,5.664C9.384,5.924,9.337,6.112,9.22,6.488
	C9.032,6.466,8.927,6.453,8.807,6.453c-0.612,0-0.907,0.025-1.473,0.143c0-0.224,0-0.341,0.012-0.483
	C7.37,5.83,7.37,5.83,7.37,5.678c1.013-0.025,2.899-0.201,4.123-0.38c0.26-0.034,0.318-0.046,0.496-0.059l-0.082-1.614
	C10.928,3.92,9.442,4.121,7.476,4.238c0.059-0.789,0.095-1.036,0.188-1.344l-1.72-0.081c0.013,0.117,0.013,0.129,0.013,0.306
	c0,0.33,0,0.353-0.013,0.554C5.91,4.108,5.91,4.108,5.897,4.286c-0.225,0-0.235,0-0.26,0c-0.931,0-1.484-0.048-2.18-0.165L3.47,5.7
	c0.152-0.022,0.247-0.022,0.317-0.022c0.023,0,0.095,0,0.213,0c0.224,0.01,0.412,0.01,0.564,0.022
	c0.637,0.022,0.719,0.022,0.943,0.022c0.236,0,0.236,0,0.329,0C5.814,6.219,5.802,6.631,5.802,6.961
	C5.095,7.267,4.648,7.549,4.189,8.02c-0.768,0.755-1.18,1.699-1.18,2.689c0,1.318,0.814,2.215,2.017,2.215
	c1,0,2.002-0.531,3.109-1.65c0.907-0.908,1.485-1.768,2.11-3.124c0.716,0.331,1.037,0.754,1.037,1.405
	c0,0.775-0.508,1.414-1.414,1.777c-0.602,0.236-1.202,0.342-2.099,0.342c0.402,0.695,0.52,0.99,0.708,1.65
	c1.143-0.154,1.803-0.307,2.391-0.578C12.235,12.109,12.989,11.014,12.989,9.658z M4.589,10.557c0,0.492,0.213,0.787,0.589,0.787
	c0.282,0,0.541-0.105,0.848-0.342c-0.142-0.861-0.188-1.555-0.199-2.438C5.037,9.093,4.589,9.801,4.589,10.557z"/>
<path fill="#FFFFFF" d="M8,21.73l1.261,3.666H6.753L8,21.73z M16,18v12c0,1.1-0.9,2-2,2H2c-1.1,0-2-0.9-2-2V18c0-1.1,0.9-2,2-2h12
	C15.1,16,16,16.9,16,18z M12.159,28.408L9.06,19.59H6.955l-3.111,8.818H5.72l0.567-1.648h3.428l0.566,1.648H12.159z"/>
<path fill="#101010" d="M24.431,7.786c0.212,0,0.212,0,0.33,0.022c-0.354,0.802-0.637,1.25-1.355,2.135
	c-0.059-0.613-0.082-1.075-0.094-1.969C23.653,7.844,24.043,7.786,24.431,7.786z M32.001,2v12c0,1.1-0.9,2-2,2H18
	c-1.099,0-2-0.9-2-2V2c0-1.1,0.9-2,2-2h12.001C31.101,0,32.001,0.9,32.001,2z M28.989,9.658c0-0.918-0.342-1.639-1.047-2.216
	c-0.389-0.318-0.732-0.481-1.215-0.624c0.047-0.093,0.047-0.093,0.129-0.33c0.119-0.295,0.119-0.295,0.154-0.376l-1.589-0.448
	c-0.037,0.26-0.084,0.448-0.201,0.824c-0.188-0.022-0.293-0.035-0.413-0.035c-0.612,0-0.907,0.025-1.473,0.143
	c0-0.224,0-0.341,0.012-0.483C23.37,5.83,23.37,5.83,23.37,5.678c1.013-0.025,2.899-0.201,4.123-0.38
	c0.26-0.034,0.318-0.046,0.496-0.059l-0.082-1.614c-0.979,0.295-2.464,0.496-4.431,0.613c0.059-0.789,0.095-1.036,0.188-1.344
	l-1.72-0.081c0.013,0.117,0.013,0.129,0.013,0.306c0,0.33,0,0.353-0.013,0.554c-0.034,0.436-0.034,0.436-0.047,0.613
	c-0.225,0-0.235,0-0.26,0c-0.931,0-1.484-0.048-2.18-0.165L19.471,5.7c0.152-0.022,0.247-0.022,0.317-0.022c0.023,0,0.095,0,0.213,0
	c0.224,0.01,0.412,0.01,0.564,0.022c0.637,0.022,0.719,0.022,0.943,0.022c0.236,0,0.236,0,0.329,0
	c-0.023,0.496-0.035,0.908-0.035,1.238c-0.707,0.306-1.154,0.588-1.613,1.059c-0.768,0.755-1.18,1.699-1.18,2.689
	c0,1.318,0.814,2.215,2.017,2.215c1,0,2.002-0.531,3.109-1.65c0.907-0.908,1.485-1.768,2.11-3.124
	c0.716,0.331,1.036,0.754,1.036,1.405c0,0.775-0.508,1.414-1.413,1.777c-0.602,0.236-1.202,0.342-2.1,0.342
	c0.402,0.695,0.52,0.99,0.708,1.65c1.144-0.154,1.804-0.307,2.391-0.578C28.235,12.109,28.989,11.014,28.989,9.658z M20.59,10.557
	c0,0.492,0.213,0.787,0.589,0.787c0.282,0,0.541-0.105,0.848-0.342c-0.142-0.861-0.188-1.555-0.199-2.438
	C21.037,9.093,20.59,9.801,20.59,10.557z"/>
<path fill="#101010" d="M24.001,21.73l1.261,3.666h-2.508L24.001,21.73z M32.001,18v12c0,1.1-0.9,2-2,2h-12c-1.1,0-2-0.9-2-2V18
	c0-1.1,0.9-2,2-2h12C31.101,16,32.001,16.9,32.001,18z M28.159,28.408l-3.099-8.818h-2.105l-3.111,8.818h1.877l0.567-1.648h3.428
	l0.566,1.648H28.159z"/>
</svg>
